<?xml version="1.0" encoding="UTF-8"?>
<svg id="Layer_2" data-name="Layer 2" xmlns="http://www.w3.org/2000/svg" viewBox="0 0 1115.08 669.13">
  <defs>
    <style>
      .cls-1 {
        fill: #054e37;
      }

      .cls-2 {
        fill: #fff;
      }

      .cls-3 {
        fill: #fcbc01;
      }
    </style>
  </defs>
  <g id="Layer_1-2" data-name="Layer 1">
    <rect class="cls-1" x=".04" y=".07" width="1115" height="669"/>
    <g>
      <g>
        <g>
          <path class="cls-2" d="m119.8,375.49c2.81,1.27,5.88,1.9,9.22,1.9,3.07,0,6.08-1.3,9.02-3.91,2.94-2.61,4.41-7.05,4.41-13.33v-147.55h24.26v151.76c0,6.01-.9,11.16-2.71,15.44-1.8,4.28-4.38,7.82-7.72,10.62-3.34,2.81-7.29,4.84-11.83,6.12-4.54,1.27-9.42,1.9-14.63,1.9-4.14,0-8.19-.57-12.13-1.7-3.94-1.14-7.38-2.51-10.33-4.11-2.94-1.6-5.28-3.14-7.02-4.61l12.63-17.44c1.74,2,4.01,3.64,6.82,4.91Z"/>
          <path class="cls-2" d="m210.41,332.09c2.81,3.61,7.15,5.41,13.03,5.41,4.01,0,7.55-.87,10.62-2.6,3.07-1.74,5.48-4.14,7.22-7.22,1.74-3.07,2.61-6.68,2.61-10.82v-56.13h21.65v92.22h-21.65v-14.23c-2.94,5.35-6.72,9.39-11.33,12.13-4.61,2.74-10.12,4.11-16.54,4.11-10.29,0-18.21-3.21-23.76-9.62-5.55-6.41-8.32-15.1-8.32-26.06v-58.54h22.25v56.13c0,6.55,1.4,11.63,4.21,15.24Z"/>
          <path class="cls-2" d="m302.42,330.89c2.94,2.27,5.95,4.01,9.02,5.21,3.07,1.2,6.15,1.81,9.22,1.81,3.87,0,6.91-.87,9.12-2.61,2.21-1.73,3.31-4.14,3.31-7.22,0-2.67-.87-4.98-2.61-6.92-1.74-1.94-4.14-3.61-7.22-5.01-3.07-1.4-6.68-2.84-10.82-4.31-4.14-1.61-8.25-3.51-12.33-5.71-4.08-2.21-7.42-5.11-10.02-8.72-2.61-3.61-3.91-8.15-3.91-13.63s1.44-10.29,4.31-14.03c2.87-3.74,6.75-6.52,11.63-8.32,4.87-1.8,10.12-2.71,15.74-2.71,5.08,0,9.86.74,14.33,2.21,4.48,1.47,8.52,3.41,12.13,5.81,3.61,2.41,6.68,5.15,9.22,8.22l-12.03,12.83c-2.94-3.61-6.55-6.55-10.82-8.82-4.28-2.27-8.69-3.41-13.23-3.41-3.21,0-5.81.67-7.82,2-2,1.34-3.01,3.28-3.01,5.81,0,2.14.9,4.04,2.71,5.71,1.81,1.67,4.21,3.18,7.22,4.51,3.01,1.34,6.38,2.74,10.13,4.21,5.21,2,9.95,4.21,14.23,6.62,4.28,2.41,7.68,5.35,10.22,8.82,2.54,3.48,3.81,8.02,3.81,13.63,0,8.69-2.98,15.67-8.92,20.95-5.95,5.28-13.93,7.92-23.96,7.92-6.41,0-12.23-.97-17.44-2.91-5.21-1.93-9.82-4.48-13.83-7.62-4.01-3.14-7.35-6.45-10.02-9.92l12.63-12.83c3.07,3.34,6.08,6.15,9.02,8.42Z"/>
          <path class="cls-2" d="m417.7,260.72v19.05h-52.32v-19.05h52.32Zm-15.43-32.08v124.3h-21.25v-124.3h21.25Z"/>
        </g>
        <g>
          <path class="cls-2" d="m529.39,212.81h27.46l-68.76,148.15-68.56-148.15h27.26l41.3,98.63,41.3-98.63Z"/>
          <path class="cls-2" d="m562.36,349.13c-7.15-4.01-12.66-9.62-16.54-16.84-3.88-7.22-5.81-15.64-5.81-25.26s1.97-18.24,5.91-25.46c3.94-7.22,9.52-12.8,16.74-16.74,7.22-3.94,15.7-5.91,25.46-5.91s18.07,1.87,24.96,5.61c6.88,3.74,12.13,9.12,15.74,16.14,3.61,7.02,5.41,15.47,5.41,25.36,0,1.07-.03,2.2-.1,3.41-.07,1.2-.1,2.08-.1,2.61h-80.99v-15.04h62.35l-6.62,9.22c.4-.8.83-1.87,1.3-3.21.47-1.34.7-2.47.7-3.41,0-4.94-.97-9.22-2.91-12.83-1.94-3.61-4.61-6.42-8.02-8.42s-7.39-3.01-11.93-3.01c-5.48,0-10.12,1.2-13.93,3.61-3.81,2.4-6.75,5.88-8.82,10.42-2.07,4.55-3.11,10.16-3.11,16.84-.13,6.55.83,12.16,2.91,16.84,2.07,4.68,5.04,8.22,8.92,10.62,3.88,2.41,8.62,3.61,14.23,3.61,6.01,0,11.23-1.2,15.64-3.61,4.41-2.4,8.02-6.08,10.83-11.03l18.84,7.42c-4.95,8.29-11.23,14.53-18.84,18.74-7.62,4.21-16.77,6.32-27.47,6.32-9.36,0-17.61-2-24.76-6.01Z"/>
          <path class="cls-2" d="m654.28,280.67c4.14-7.02,9.65-12.4,16.54-16.14,6.88-3.74,14.27-5.61,22.15-5.61s14.53,1.9,20.35,5.71c5.81,3.81,10.42,9.22,13.83,16.24,3.41,7.02,5.11,15.54,5.11,25.56s-1.7,18.41-5.11,25.56c-3.41,7.15-8.02,12.63-13.83,16.44-5.81,3.81-12.6,5.71-20.35,5.71s-15.27-1.87-22.15-5.61c-6.89-3.74-12.4-9.15-16.54-16.24-4.14-7.08-6.21-15.7-6.21-25.86s2.07-18.74,6.21-25.76Zm17.24,78.69c.13,4.14,1.27,7.85,3.41,11.13,2.14,3.27,5.14,5.88,9.02,7.82,3.88,1.94,8.42,2.91,13.63,2.91,4.41,0,8.69-1.07,12.83-3.21,4.14-2.14,7.52-5.41,10.12-9.82,2.61-4.41,3.91-10.09,3.91-17.04v-90.21h21.25v90.21c0,11.09-2.24,20.25-6.72,27.46-4.48,7.22-10.32,12.6-17.54,16.14-7.22,3.54-15.04,5.31-23.46,5.31-9.89,0-18.38-1.71-25.46-5.11-7.09-3.41-12.56-8.19-16.44-14.33-3.88-6.15-5.95-13.23-6.21-21.25h21.65Zm2.81-37.19c2.54,4.35,5.91,7.62,10.12,9.82,4.21,2.2,8.79,3.31,13.73,3.31,4.28,0,8.42-1.1,12.43-3.31s7.32-5.44,9.92-9.72c2.61-4.28,3.91-9.55,3.91-15.84,0-4.68-.77-8.79-2.31-12.33-1.54-3.54-3.58-6.55-6.12-9.02-2.54-2.47-5.35-4.31-8.42-5.51-3.08-1.2-6.21-1.8-9.42-1.8-4.95,0-9.52,1.1-13.73,3.31-4.21,2.21-7.59,5.45-10.12,9.72-2.54,4.28-3.81,9.49-3.81,15.64s1.27,11.4,3.81,15.74Z"/>
          <path class="cls-2" d="m767.74,280.67c4.14-7.02,9.66-12.4,16.54-16.14,6.88-3.74,14.27-5.61,22.15-5.61s14.53,1.9,20.35,5.71c5.81,3.81,10.42,9.22,13.83,16.24,3.41,7.02,5.11,15.54,5.11,25.56s-1.7,18.41-5.11,25.56c-3.41,7.15-8.02,12.63-13.83,16.44-5.81,3.81-12.6,5.71-20.35,5.71s-15.27-1.87-22.15-5.61c-6.88-3.74-12.4-9.15-16.54-16.24-4.14-7.08-6.21-15.7-6.21-25.86s2.07-18.74,6.21-25.76Zm17.24,78.69c.13,4.14,1.27,7.85,3.41,11.13,2.14,3.27,5.14,5.88,9.02,7.82,3.87,1.94,8.42,2.91,13.63,2.91,4.41,0,8.69-1.07,12.83-3.21,4.14-2.14,7.52-5.41,10.13-9.82,2.61-4.41,3.91-10.09,3.91-17.04v-90.21h21.25v90.21c0,11.09-2.24,20.25-6.72,27.46-4.48,7.22-10.32,12.6-17.54,16.14-7.22,3.54-15.04,5.31-23.45,5.31-9.89,0-18.38-1.71-25.46-5.11-7.09-3.41-12.56-8.19-16.44-14.33s-5.95-13.23-6.21-21.25h21.65Zm2.81-37.19c2.54,4.35,5.92,7.62,10.13,9.82,4.21,2.2,8.79,3.31,13.73,3.31,4.28,0,8.42-1.1,12.43-3.31s7.32-5.44,9.92-9.72c2.61-4.28,3.91-9.55,3.91-15.84,0-4.68-.77-8.79-2.3-12.33-1.54-3.54-3.58-6.55-6.11-9.02-2.54-2.47-5.35-4.31-8.42-5.51-3.08-1.2-6.22-1.8-9.42-1.8-4.95,0-9.52,1.1-13.73,3.31-4.21,2.21-7.59,5.45-10.13,9.72-2.54,4.28-3.81,9.49-3.81,15.64s1.27,11.4,3.81,15.74Z"/>
          <path class="cls-2" d="m881.31,214.81c2.74-2.54,5.91-3.81,9.52-3.81,3.87,0,7.15,1.27,9.82,3.81,2.67,2.54,4.01,5.68,4.01,9.42s-1.34,6.72-4.01,9.32c-2.68,2.61-5.95,3.91-9.82,3.91-3.61,0-6.79-1.3-9.52-3.91-2.74-2.61-4.11-5.71-4.11-9.32s1.37-6.88,4.11-9.42Zm20.35,46.11v92.22h-21.45v-92.22h21.45Z"/>
          <path class="cls-2" d="m942.86,349.13c-7.15-4.01-12.66-9.62-16.54-16.84s-5.81-15.64-5.81-25.26,1.97-18.24,5.92-25.46c3.94-7.22,9.52-12.8,16.74-16.74,7.22-3.94,15.7-5.91,25.46-5.91s18.07,1.87,24.96,5.61c6.88,3.74,12.13,9.12,15.74,16.14,3.61,7.02,5.41,15.47,5.41,25.36,0,1.07-.04,2.2-.1,3.41-.07,1.2-.1,2.08-.1,2.61h-80.99v-15.04h62.35l-6.62,9.22c.4-.8.83-1.87,1.3-3.21.47-1.34.7-2.47.7-3.41,0-4.94-.97-9.22-2.91-12.83-1.94-3.61-4.61-6.42-8.02-8.42s-7.39-3.01-11.93-3.01c-5.48,0-10.12,1.2-13.93,3.61-3.81,2.4-6.75,5.88-8.82,10.42-2.08,4.55-3.11,10.16-3.11,16.84-.13,6.55.83,12.16,2.91,16.84,2.07,4.68,5.04,8.22,8.92,10.62,3.88,2.41,8.62,3.61,14.23,3.61,6.01,0,11.23-1.2,15.64-3.61,4.41-2.4,8.02-6.08,10.83-11.03l18.84,7.42c-4.95,8.29-11.23,14.53-18.84,18.74-7.62,4.21-16.77,6.32-27.47,6.32-9.35,0-17.61-2-24.76-6.01Z"/>
        </g>
      </g>
      <g>
        <path class="cls-3" d="m201.65,429.49h13.48c.05,2.05-.21,3.99-.8,5.82-.59,1.83-1.47,3.45-2.64,4.86-1.17,1.41-2.63,2.53-4.36,3.34-1.73.81-3.72,1.22-5.96,1.22-2.11,0-4.05-.35-5.84-1.06-1.79-.71-3.34-1.71-4.66-3.02-1.32-1.31-2.34-2.85-3.06-4.64-.72-1.79-1.08-3.75-1.08-5.88s.37-4.09,1.1-5.86c.73-1.77,1.77-3.31,3.1-4.6,1.33-1.29,2.89-2.29,4.68-3,1.79-.71,3.73-1.06,5.84-1.06,1.84,0,3.51.25,5.02.76,1.51.51,2.85,1.22,4.02,2.14,1.17.92,2.17,2.03,3,3.34l-3.84,2.56c-.77-1.33-1.85-2.4-3.22-3.2-1.37-.8-3.03-1.2-4.98-1.2-1.79,0-3.42.42-4.9,1.26-1.48.84-2.65,2.01-3.52,3.52s-1.3,3.29-1.3,5.34.43,3.81,1.28,5.34c.85,1.53,2.01,2.73,3.48,3.58s3.12,1.28,4.96,1.28c1.25,0,2.37-.17,3.36-.52.99-.35,1.84-.84,2.56-1.48.72-.64,1.32-1.37,1.8-2.2.48-.83.84-1.71,1.08-2.64h-8.6v-4Z"/>
        <path class="cls-3" d="m230.37,412.93v31.2h-4.36v-31.2h4.36Z"/>
        <path class="cls-3" d="m247.53,439.97c.56.72,1.43,1.08,2.6,1.08.8,0,1.51-.17,2.12-.52s1.09-.83,1.44-1.44c.35-.61.52-1.33.52-2.16v-11.2h4.32v18.4h-4.32v-2.84c-.59,1.07-1.34,1.87-2.26,2.42s-2.02.82-3.3.82c-2.05,0-3.63-.64-4.74-1.92-1.11-1.28-1.66-3.01-1.66-5.2v-11.68h4.44v11.2c0,1.31.28,2.32.84,3.04Z"/>
        <path class="cls-3" d="m278.33,425.73v3.8h-10.44v-3.8h10.44Zm-3.08-6.4v24.8h-4.24v-24.8h4.24Z"/>
        <path class="cls-3" d="m290.75,443.33c-1.43-.8-2.53-1.92-3.3-3.36-.77-1.44-1.16-3.12-1.16-5.04s.39-3.64,1.18-5.08c.79-1.44,1.9-2.55,3.34-3.34,1.44-.79,3.13-1.18,5.08-1.18s3.61.37,4.98,1.12c1.37.75,2.42,1.82,3.14,3.22s1.08,3.09,1.08,5.06c0,.21,0,.44-.02.68-.01.24-.02.41-.02.52h-16.16v-3h12.44l-1.32,1.84c.08-.16.17-.37.26-.64s.14-.49.14-.68c0-.99-.19-1.84-.58-2.56-.39-.72-.92-1.28-1.6-1.68-.68-.4-1.47-.6-2.38-.6-1.09,0-2.02.24-2.78.72-.76.48-1.35,1.17-1.76,2.08s-.62,2.03-.62,3.36c-.03,1.31.17,2.43.58,3.36s1.01,1.64,1.78,2.12c.77.48,1.72.72,2.84.72,1.2,0,2.24-.24,3.12-.72.88-.48,1.6-1.21,2.16-2.2l3.76,1.48c-.99,1.65-2.24,2.9-3.76,3.74-1.52.84-3.35,1.26-5.48,1.26-1.87,0-3.51-.4-4.94-1.2Z"/>
        <path class="cls-3" d="m326.65,429.85c-.56-.69-1.41-1.04-2.56-1.04-.83,0-1.55.17-2.16.5-.61.33-1.09.81-1.42,1.44-.33.63-.5,1.35-.5,2.18v11.2h-4.36v-18.4h4.36v2.84c.59-1.09,1.34-1.91,2.26-2.44.92-.53,2.01-.8,3.26-.8,2.08,0,3.67.63,4.76,1.9,1.09,1.27,1.64,2.99,1.64,5.18v11.72h-4.44v-11.2c0-1.36-.28-2.39-.84-3.08Z"/>
        <path class="cls-3" d="m367.25,416.13v28h-4.64v-28h4.64Zm-1.72,0h12.52v4.24h-12.52v-4.24Zm0,11.24h12.12v4.12h-12.12v-4.12Z"/>
        <path class="cls-3" d="m392.97,444.13h-4.28v-18.4h4.28v18.4Zm4.38-14.52c-.36-.16-.81-.24-1.34-.24-.72,0-1.31.19-1.76.56-.45.37-.78.89-.98,1.54-.2.65-.3,1.42-.3,2.3l-1.44-.84c0-1.47.27-2.77.82-3.9s1.25-2.04,2.12-2.72c.87-.68,1.77-1.02,2.7-1.02.67,0,1.29.11,1.88.32.59.21,1.09.57,1.52,1.08l-2.12,3.64c-.37-.32-.74-.56-1.1-.72Z"/>
        <path class="cls-3" d="m412.39,443.33c-1.43-.8-2.53-1.92-3.3-3.36-.77-1.44-1.16-3.12-1.16-5.04s.39-3.64,1.18-5.08c.79-1.44,1.9-2.55,3.34-3.34,1.44-.79,3.13-1.18,5.08-1.18s3.61.37,4.98,1.12c1.37.75,2.42,1.82,3.14,3.22s1.08,3.09,1.08,5.06c0,.21,0,.44-.02.68-.01.24-.02.41-.02.52h-16.16v-3h12.44l-1.32,1.84c.08-.16.17-.37.26-.64s.14-.49.14-.68c0-.99-.19-1.84-.58-2.56-.39-.72-.92-1.28-1.6-1.68-.68-.4-1.47-.6-2.38-.6-1.09,0-2.02.24-2.78.72-.76.48-1.35,1.17-1.76,2.08s-.62,2.03-.62,3.36c-.03,1.31.17,2.43.58,3.36s1.01,1.64,1.78,2.12c.77.48,1.72.72,2.84.72,1.2,0,2.24-.24,3.12-.72.88-.48,1.6-1.21,2.16-2.2l3.76,1.48c-.99,1.65-2.24,2.9-3.76,3.74-1.52.84-3.35,1.26-5.48,1.26-1.87,0-3.51-.4-4.94-1.2Z"/>
        <path class="cls-3" d="m440.35,443.33c-1.43-.8-2.53-1.92-3.3-3.36-.77-1.44-1.16-3.12-1.16-5.04s.39-3.64,1.18-5.08c.79-1.44,1.9-2.55,3.34-3.34,1.44-.79,3.13-1.18,5.08-1.18s3.61.37,4.98,1.12,2.42,1.82,3.14,3.22c.72,1.4,1.08,3.09,1.08,5.06,0,.21,0,.44-.02.68-.01.24-.02.41-.02.52h-16.16v-3h12.44l-1.32,1.84c.08-.16.17-.37.26-.64.09-.27.14-.49.14-.68,0-.99-.19-1.84-.58-2.56-.39-.72-.92-1.28-1.6-1.68s-1.47-.6-2.38-.6c-1.09,0-2.02.24-2.78.72-.76.48-1.35,1.17-1.76,2.08-.41.91-.62,2.03-.62,3.36-.03,1.31.17,2.43.58,3.36.41.93,1.01,1.64,1.78,2.12.77.48,1.72.72,2.84.72,1.2,0,2.24-.24,3.12-.72.88-.48,1.6-1.21,2.16-2.2l3.76,1.48c-.99,1.65-2.24,2.9-3.76,3.74-1.52.84-3.35,1.26-5.48,1.26-1.87,0-3.51-.4-4.94-1.2Z"/>
        <path class="cls-3" d="m502.93,416.13h5.48l-13.72,29.56-13.68-29.56h5.44l8.24,19.68,8.24-19.68Z"/>
        <path class="cls-3" d="m517.51,443.33c-1.43-.8-2.53-1.92-3.3-3.36-.77-1.44-1.16-3.12-1.16-5.04s.39-3.64,1.18-5.08c.79-1.44,1.9-2.55,3.34-3.34,1.44-.79,3.13-1.18,5.08-1.18s3.61.37,4.98,1.12,2.42,1.82,3.14,3.22c.72,1.4,1.08,3.09,1.08,5.06,0,.21,0,.44-.02.68-.01.24-.02.41-.02.52h-16.16v-3h12.44l-1.32,1.84c.08-.16.17-.37.26-.64.09-.27.14-.49.14-.68,0-.99-.19-1.84-.58-2.56-.39-.72-.92-1.28-1.6-1.68s-1.47-.6-2.38-.6c-1.09,0-2.02.24-2.78.72-.76.48-1.35,1.17-1.76,2.08-.41.91-.62,2.03-.62,3.36-.03,1.31.17,2.43.58,3.36.41.93,1.01,1.64,1.78,2.12.77.48,1.72.72,2.84.72,1.2,0,2.24-.24,3.12-.72.88-.48,1.6-1.21,2.16-2.2l3.76,1.48c-.99,1.65-2.24,2.9-3.76,3.74-1.52.84-3.35,1.26-5.48,1.26-1.87,0-3.51-.4-4.94-1.2Z"/>
        <path class="cls-3" d="m542.25,429.67c.83-1.4,1.93-2.47,3.3-3.22,1.37-.75,2.85-1.12,4.42-1.12s2.9.38,4.06,1.14c1.16.76,2.08,1.84,2.76,3.24.68,1.4,1.02,3.1,1.02,5.1s-.34,3.67-1.02,5.1c-.68,1.43-1.6,2.52-2.76,3.28-1.16.76-2.51,1.14-4.06,1.14s-3.05-.37-4.42-1.12c-1.37-.75-2.47-1.83-3.3-3.24-.83-1.41-1.24-3.13-1.24-5.16s.41-3.74,1.24-5.14Zm3.44,15.7c.03.83.25,1.57.68,2.22.43.65,1.03,1.17,1.8,1.56.77.39,1.68.58,2.72.58.88,0,1.73-.21,2.56-.64.83-.43,1.5-1.08,2.02-1.96.52-.88.78-2.01.78-3.4v-18h4.24v18c0,2.21-.45,4.04-1.34,5.48-.89,1.44-2.06,2.51-3.5,3.22-1.44.71-3,1.06-4.68,1.06-1.97,0-3.67-.34-5.08-1.02-1.41-.68-2.51-1.63-3.28-2.86-.77-1.23-1.19-2.64-1.24-4.24h4.32Zm.56-7.42c.51.87,1.18,1.52,2.02,1.96.84.44,1.75.66,2.74.66.85,0,1.68-.22,2.48-.66.8-.44,1.46-1.09,1.98-1.94.52-.85.78-1.91.78-3.16,0-.93-.15-1.75-.46-2.46-.31-.71-.71-1.31-1.22-1.8-.51-.49-1.07-.86-1.68-1.1-.61-.24-1.24-.36-1.88-.36-.99,0-1.9.22-2.74.66-.84.44-1.51,1.09-2.02,1.94-.51.85-.76,1.89-.76,3.12s.25,2.27.76,3.14Z"/>
        <path class="cls-3" d="m575.31,443.33c-1.43-.8-2.53-1.92-3.3-3.36-.77-1.44-1.16-3.12-1.16-5.04s.39-3.64,1.18-5.08c.79-1.44,1.9-2.55,3.34-3.34,1.44-.79,3.13-1.18,5.08-1.18s3.61.37,4.98,1.12c1.37.75,2.42,1.82,3.14,3.22s1.08,3.09,1.08,5.06c0,.21,0,.44-.02.68-.01.24-.02.41-.02.52h-16.16v-3h12.44l-1.32,1.84c.08-.16.17-.37.26-.64s.14-.49.14-.68c0-.99-.19-1.84-.58-2.56-.39-.72-.92-1.28-1.6-1.68-.68-.4-1.47-.6-2.38-.6-1.09,0-2.02.24-2.78.72-.76.48-1.35,1.17-1.76,2.08s-.62,2.03-.62,3.36c-.03,1.31.17,2.43.58,3.36s1.01,1.64,1.78,2.12c.77.48,1.72.72,2.84.72,1.2,0,2.24-.24,3.12-.72.88-.48,1.6-1.21,2.16-2.2l3.76,1.48c-.99,1.65-2.24,2.9-3.76,3.74-1.52.84-3.35,1.26-5.48,1.26-1.87,0-3.51-.4-4.94-1.2Z"/>
        <path class="cls-3" d="m608.08,425.73v3.8h-10.44v-3.8h10.44Zm-3.08-6.4v24.8h-4.24v-24.8h4.24Z"/>
        <path class="cls-3" d="m620.5,443.33c-1.43-.8-2.53-1.92-3.3-3.36-.77-1.44-1.16-3.12-1.16-5.04s.39-3.64,1.18-5.08c.79-1.44,1.9-2.55,3.34-3.34,1.44-.79,3.13-1.18,5.08-1.18s3.61.37,4.98,1.12c1.37.75,2.42,1.82,3.14,3.22s1.08,3.09,1.08,5.06c0,.21,0,.44-.02.68-.01.24-.02.41-.02.52h-16.16v-3h12.44l-1.32,1.84c.08-.16.17-.37.26-.64s.14-.49.14-.68c0-.99-.19-1.84-.58-2.56-.39-.72-.92-1.28-1.6-1.68-.68-.4-1.47-.6-2.38-.6-1.09,0-2.02.24-2.78.72-.76.48-1.35,1.17-1.76,2.08s-.62,2.03-.62,3.36c-.03,1.31.17,2.43.58,3.36s1.01,1.64,1.78,2.12c.77.48,1.72.72,2.84.72,1.2,0,2.24-.24,3.12-.72.88-.48,1.6-1.21,2.16-2.2l3.76,1.48c-.99,1.65-2.24,2.9-3.76,3.74-1.52.84-3.35,1.26-5.48,1.26-1.87,0-3.51-.4-4.94-1.2Z"/>
        <path class="cls-3" d="m649.68,444.13h-4.28v-18.4h4.28v18.4Zm4.38-14.52c-.36-.16-.81-.24-1.34-.24-.72,0-1.31.19-1.76.56-.45.37-.78.89-.98,1.54-.2.65-.3,1.42-.3,2.3l-1.44-.84c0-1.47.27-2.77.82-3.9s1.25-2.04,2.12-2.72c.87-.68,1.77-1.02,2.7-1.02.67,0,1.29.11,1.88.32.59.21,1.09.57,1.52,1.08l-2.12,3.64c-.37-.32-.74-.56-1.1-.72Z"/>
        <path class="cls-3" d="m667.3,416.53c.55-.51,1.18-.76,1.9-.76.77,0,1.43.25,1.96.76.53.51.8,1.13.8,1.88s-.27,1.34-.8,1.86c-.53.52-1.19.78-1.96.78-.72,0-1.35-.26-1.9-.78-.55-.52-.82-1.14-.82-1.86s.27-1.37.82-1.88Zm4.06,9.2v18.4h-4.28v-18.4h4.28Z"/>
        <path class="cls-3" d="m686.88,439.99c.29.44.7.77,1.22.98.52.21,1.11.32,1.78.32.88,0,1.67-.18,2.38-.54.71-.36,1.27-.87,1.7-1.54.43-.67.64-1.47.64-2.4l.64,2.4c0,1.17-.34,2.16-1.02,2.96s-1.53,1.39-2.56,1.78c-1.03.39-2.07.58-3.14.58-1.15,0-2.21-.23-3.2-.68s-1.77-1.12-2.36-2c-.59-.88-.88-1.95-.88-3.2,0-1.79.63-3.21,1.88-4.26,1.25-1.05,3.03-1.58,5.32-1.58,1.23,0,2.29.13,3.18.4.89.27,1.63.58,2.22.94.59.36,1,.69,1.24.98v2.2c-.83-.59-1.71-1.01-2.64-1.28s-1.92-.4-2.96-.4c-.91,0-1.64.11-2.2.34-.56.23-.98.54-1.26.94-.28.4-.42.89-.42,1.48s.15,1.14.44,1.58Zm-3.56-12.5c.85-.51,1.93-1,3.24-1.48,1.31-.48,2.83-.72,4.56-.72,1.49,0,2.83.22,4,.66,1.17.44,2.09,1.09,2.74,1.94.65.85.98,1.89.98,3.12v13.12h-4.24v-12.28c0-.59-.09-1.07-.28-1.44s-.46-.68-.82-.92c-.36-.24-.78-.41-1.26-.52-.48-.11-1-.16-1.56-.16-.85,0-1.66.1-2.42.3-.76.2-1.41.44-1.94.72s-.95.51-1.24.7l-1.76-3.04Z"/>
        <path class="cls-3" d="m721.28,429.85c-.56-.69-1.41-1.04-2.56-1.04-.83,0-1.55.17-2.16.5-.61.33-1.09.81-1.42,1.44-.33.63-.5,1.35-.5,2.18v11.2h-4.36v-18.4h4.36v2.84c.59-1.09,1.34-1.91,2.26-2.44.92-.53,2.01-.8,3.26-.8,2.08,0,3.67.63,4.76,1.9,1.09,1.27,1.64,2.99,1.64,5.18v11.72h-4.44v-11.2c0-1.36-.28-2.39-.84-3.08Z"/>
        <path class="cls-3" d="m761.96,416.13v28h-4.72v-28h4.72Zm-1.92,0h5.84c2.05,0,3.83.36,5.32,1.08s2.66,1.73,3.5,3.02c.84,1.29,1.26,2.82,1.26,4.58s-.42,3.29-1.26,4.6-2.01,2.32-3.5,3.04c-1.49.72-3.27,1.08-5.32,1.08h-5.84v-3.92h5.64c1.09,0,2.04-.18,2.84-.54.8-.36,1.43-.89,1.88-1.6.45-.71.68-1.55.68-2.54s-.23-1.87-.68-2.56c-.45-.69-1.08-1.23-1.88-1.6-.8-.37-1.75-.56-2.84-.56h-5.64v-4.08Zm8.08,14.64l9.52,13.36h-5.72l-8.88-13.36h5.08Z"/>
        <path class="cls-3" d="m790.14,443.33c-1.43-.8-2.53-1.92-3.3-3.36-.77-1.44-1.16-3.12-1.16-5.04s.39-3.64,1.18-5.08c.79-1.44,1.9-2.55,3.34-3.34,1.44-.79,3.13-1.18,5.08-1.18s3.61.37,4.98,1.12c1.37.75,2.42,1.82,3.14,3.22s1.08,3.09,1.08,5.06c0,.21,0,.44-.02.68-.01.24-.02.41-.02.52h-16.16v-3h12.44l-1.32,1.84c.08-.16.17-.37.26-.64s.14-.49.14-.68c0-.99-.19-1.84-.58-2.56-.39-.72-.92-1.28-1.6-1.68-.68-.4-1.47-.6-2.38-.6-1.09,0-2.02.24-2.78.72-.76.48-1.35,1.17-1.76,2.08s-.62,2.03-.62,3.36c-.03,1.31.17,2.43.58,3.36s1.01,1.64,1.78,2.12c.77.48,1.72.72,2.84.72,1.2,0,2.24-.24,3.12-.72.88-.48,1.6-1.21,2.16-2.2l3.76,1.48c-.99,1.65-2.24,2.9-3.76,3.74-1.52.84-3.35,1.26-5.48,1.26-1.87,0-3.51-.4-4.94-1.2Z"/>
        <path class="cls-3" d="m818.68,437.97c.51.88,1.19,1.57,2.06,2.08.87.51,1.83.76,2.9.76.91,0,1.75-.14,2.54-.42.79-.28,1.49-.65,2.1-1.12.61-.47,1.07-.99,1.36-1.58v4.76c-.64.64-1.51,1.15-2.6,1.52s-2.29.56-3.6.56c-1.87,0-3.55-.41-5.06-1.22-1.51-.81-2.7-1.95-3.58-3.4-.88-1.45-1.32-3.11-1.32-4.98s.44-3.56,1.32-5c.88-1.44,2.07-2.57,3.58-3.38s3.19-1.22,5.06-1.22c1.31,0,2.51.19,3.6.56,1.09.37,1.96.87,2.6,1.48v4.8c-.29-.61-.75-1.15-1.38-1.62-.63-.47-1.34-.83-2.14-1.1s-1.63-.4-2.48-.4c-1.07,0-2.03.25-2.9.76-.87.51-1.55,1.2-2.06,2.08-.51.88-.76,1.89-.76,3.04s.25,2.16.76,3.04Z"/>
        <path class="cls-3" d="m841.46,416.53c.55-.51,1.18-.76,1.9-.76.77,0,1.43.25,1.96.76.53.51.8,1.13.8,1.88s-.27,1.34-.8,1.86c-.53.52-1.19.78-1.96.78-.72,0-1.35-.26-1.9-.78-.55-.52-.82-1.14-.82-1.86s.27-1.37.82-1.88Zm4.06,9.2v18.4h-4.28v-18.4h4.28Z"/>
        <path class="cls-3" d="m857.72,452.93v-27.2h4.36v27.2h-4.36Zm18.36-12.78c-.83,1.45-1.92,2.56-3.28,3.32-1.36.76-2.84,1.14-4.44,1.14s-2.9-.39-4.06-1.18-2.06-1.91-2.7-3.36c-.64-1.45-.96-3.17-.96-5.14s.32-3.72.96-5.16c.64-1.44,1.54-2.56,2.7-3.36s2.51-1.2,4.06-1.2,3.08.39,4.44,1.16c1.36.77,2.45,1.87,3.28,3.3.83,1.43,1.24,3.18,1.24,5.26s-.41,3.77-1.24,5.22Zm-4-8.36c-.51-.87-1.17-1.52-2-1.96-.83-.44-1.75-.66-2.76-.66-.85,0-1.68.22-2.48.66-.8.44-1.46,1.09-1.98,1.94-.52.85-.78,1.91-.78,3.16s.26,2.31.78,3.16c.52.85,1.18,1.5,1.98,1.94.8.44,1.63.66,2.48.66,1.01,0,1.93-.23,2.76-.68.83-.45,1.49-1.11,2-1.96.51-.85.76-1.89.76-3.12s-.25-2.27-.76-3.14Z"/>
        <path class="cls-3" d="m890.9,443.33c-1.43-.8-2.53-1.92-3.3-3.36-.77-1.44-1.16-3.12-1.16-5.04s.39-3.64,1.18-5.08c.79-1.44,1.9-2.55,3.34-3.34,1.44-.79,3.13-1.18,5.08-1.18s3.61.37,4.98,1.12c1.37.75,2.42,1.82,3.14,3.22s1.08,3.09,1.08,5.06c0,.21,0,.44-.02.68-.01.24-.02.41-.02.52h-16.16v-3h12.44l-1.32,1.84c.08-.16.17-.37.26-.64s.14-.49.14-.68c0-.99-.19-1.84-.58-2.56-.39-.72-.92-1.28-1.6-1.68-.68-.4-1.47-.6-2.38-.6-1.09,0-2.02.24-2.78.72-.76.48-1.35,1.17-1.76,2.08-.41.91-.62,2.03-.62,3.36-.03,1.31.17,2.43.58,3.36.41.93,1.01,1.64,1.78,2.12.77.48,1.72.72,2.84.72,1.2,0,2.24-.24,3.12-.72.88-.48,1.6-1.21,2.16-2.2l3.76,1.48c-.99,1.65-2.24,2.9-3.76,3.74-1.52.84-3.35,1.26-5.48,1.26-1.87,0-3.51-.4-4.94-1.2Z"/>
        <path class="cls-3" d="m918.44,439.73c.59.45,1.19.8,1.8,1.04.61.24,1.23.36,1.84.36.77,0,1.38-.17,1.82-.52.44-.35.66-.83.66-1.44,0-.53-.17-.99-.52-1.38s-.83-.72-1.44-1-1.33-.57-2.16-.86c-.83-.32-1.65-.7-2.46-1.14-.81-.44-1.48-1.02-2-1.74-.52-.72-.78-1.63-.78-2.72s.29-2.05.86-2.8c.57-.75,1.35-1.3,2.32-1.66.97-.36,2.02-.54,3.14-.54,1.01,0,1.97.15,2.86.44.89.29,1.7.68,2.42,1.16.72.48,1.33,1.03,1.84,1.64l-2.4,2.56c-.59-.72-1.31-1.31-2.16-1.76s-1.73-.68-2.64-.68c-.64,0-1.16.13-1.56.4-.4.27-.6.65-.6,1.16,0,.43.18.81.54,1.14.36.33.84.63,1.44.9.6.27,1.27.55,2.02.84,1.04.4,1.99.84,2.84,1.32.85.48,1.53,1.07,2.04,1.76.51.69.76,1.6.76,2.72,0,1.73-.59,3.13-1.78,4.18-1.19,1.05-2.78,1.58-4.78,1.58-1.28,0-2.44-.19-3.48-.58-1.04-.39-1.96-.89-2.76-1.52-.8-.63-1.47-1.29-2-1.98l2.52-2.56c.61.67,1.21,1.23,1.8,1.68Z"/>
      </g>
    </g>
  </g>
</svg>